<mxfile host="app.diagrams.net" modified="2024-04-01T14:02:42.095Z" agent="Mozilla/5.0 (Windows NT 10.0; Win64; x64) AppleWebKit/537.36 (KHTML, like Gecko) Chrome/123.0.0.0 Safari/537.36" etag="ClAqVPS5WFl4iitGJksv" version="24.2.1" type="device">
  <diagram id="C5RBs43oDa-KdzZeNtuy" name="Page-1">
    <mxGraphModel dx="2049" dy="1177" grid="1" gridSize="10" guides="1" tooltips="1" connect="1" arrows="1" fold="1" page="1" pageScale="1" pageWidth="827" pageHeight="1169" math="0" shadow="0">
      <root>
        <mxCell id="WIyWlLk6GJQsqaUBKTNV-0" />
        <mxCell id="WIyWlLk6GJQsqaUBKTNV-1" parent="WIyWlLk6GJQsqaUBKTNV-0" />
        <mxCell id="vO9Th2QY3rNOP9X5Ir2l-2" value="" style="edgeStyle=orthogonalEdgeStyle;rounded=0;orthogonalLoop=1;jettySize=auto;html=1;" edge="1" parent="WIyWlLk6GJQsqaUBKTNV-1" source="vO9Th2QY3rNOP9X5Ir2l-0" target="vO9Th2QY3rNOP9X5Ir2l-1">
          <mxGeometry relative="1" as="geometry" />
        </mxCell>
        <mxCell id="vO9Th2QY3rNOP9X5Ir2l-0" value="Symptoms from the user" style="shape=parallelogram;perimeter=parallelogramPerimeter;whiteSpace=wrap;html=1;fixedSize=1;fontSize=26;" vertex="1" parent="WIyWlLk6GJQsqaUBKTNV-1">
          <mxGeometry x="110" y="20" width="350" height="100" as="geometry" />
        </mxCell>
        <mxCell id="vO9Th2QY3rNOP9X5Ir2l-4" value="" style="edgeStyle=orthogonalEdgeStyle;rounded=0;orthogonalLoop=1;jettySize=auto;html=1;" edge="1" parent="WIyWlLk6GJQsqaUBKTNV-1" source="vO9Th2QY3rNOP9X5Ir2l-1" target="vO9Th2QY3rNOP9X5Ir2l-3">
          <mxGeometry relative="1" as="geometry" />
        </mxCell>
        <mxCell id="vO9Th2QY3rNOP9X5Ir2l-1" value="No. of days experincing the symptom" style="shape=parallelogram;perimeter=parallelogramPerimeter;whiteSpace=wrap;html=1;fixedSize=1;fontSize=26;" vertex="1" parent="WIyWlLk6GJQsqaUBKTNV-1">
          <mxGeometry x="110" y="200" width="350" height="100" as="geometry" />
        </mxCell>
        <mxCell id="vO9Th2QY3rNOP9X5Ir2l-7" style="edgeStyle=orthogonalEdgeStyle;rounded=0;orthogonalLoop=1;jettySize=auto;html=1;exitX=0.5;exitY=1;exitDx=0;exitDy=0;entryX=0.5;entryY=0;entryDx=0;entryDy=0;" edge="1" parent="WIyWlLk6GJQsqaUBKTNV-1" source="vO9Th2QY3rNOP9X5Ir2l-3" target="vO9Th2QY3rNOP9X5Ir2l-6">
          <mxGeometry relative="1" as="geometry" />
        </mxCell>
        <mxCell id="vO9Th2QY3rNOP9X5Ir2l-3" value="Decision Tree Model (finding node)" style="whiteSpace=wrap;html=1;fontSize=26;" vertex="1" parent="WIyWlLk6GJQsqaUBKTNV-1">
          <mxGeometry x="225" y="400" width="215" height="120" as="geometry" />
        </mxCell>
        <mxCell id="vO9Th2QY3rNOP9X5Ir2l-9" value="" style="edgeStyle=orthogonalEdgeStyle;rounded=0;orthogonalLoop=1;jettySize=auto;html=1;" edge="1" parent="WIyWlLk6GJQsqaUBKTNV-1" source="vO9Th2QY3rNOP9X5Ir2l-6" target="vO9Th2QY3rNOP9X5Ir2l-8">
          <mxGeometry relative="1" as="geometry" />
        </mxCell>
        <mxCell id="vO9Th2QY3rNOP9X5Ir2l-13" value="" style="edgeStyle=orthogonalEdgeStyle;rounded=0;orthogonalLoop=1;jettySize=auto;html=1;" edge="1" parent="WIyWlLk6GJQsqaUBKTNV-1" source="vO9Th2QY3rNOP9X5Ir2l-6" target="vO9Th2QY3rNOP9X5Ir2l-12">
          <mxGeometry relative="1" as="geometry" />
        </mxCell>
        <mxCell id="vO9Th2QY3rNOP9X5Ir2l-6" value="Follow up symptoms from the user&amp;nbsp;" style="shape=parallelogram;perimeter=parallelogramPerimeter;whiteSpace=wrap;html=1;fixedSize=1;fontSize=26;" vertex="1" parent="WIyWlLk6GJQsqaUBKTNV-1">
          <mxGeometry x="140" y="585" width="380" height="105" as="geometry" />
        </mxCell>
        <mxCell id="vO9Th2QY3rNOP9X5Ir2l-11" value="" style="edgeStyle=orthogonalEdgeStyle;rounded=0;orthogonalLoop=1;jettySize=auto;html=1;" edge="1" parent="WIyWlLk6GJQsqaUBKTNV-1" source="vO9Th2QY3rNOP9X5Ir2l-8" target="vO9Th2QY3rNOP9X5Ir2l-10">
          <mxGeometry relative="1" as="geometry">
            <Array as="points">
              <mxPoint x="175" y="940" />
              <mxPoint x="330" y="940" />
            </Array>
          </mxGeometry>
        </mxCell>
        <mxCell id="vO9Th2QY3rNOP9X5Ir2l-8" value="Primary&amp;nbsp; Prediction" style="whiteSpace=wrap;html=1;fontSize=26;" vertex="1" parent="WIyWlLk6GJQsqaUBKTNV-1">
          <mxGeometry x="80" y="770" width="190" height="97.5" as="geometry" />
        </mxCell>
        <mxCell id="vO9Th2QY3rNOP9X5Ir2l-10" value="&lt;div style=&quot;text-align: start;&quot;&gt;&lt;span style=&quot;background-color: initial;&quot;&gt;Gives description about Disease, specialist d&lt;/span&gt;&lt;span style=&quot;background-color: initial;&quot;&gt;octor, related medicine,link for info and appointment&lt;/span&gt;&lt;/div&gt;" style="whiteSpace=wrap;html=1;fontSize=26;" vertex="1" parent="WIyWlLk6GJQsqaUBKTNV-1">
          <mxGeometry x="160" y="1000" width="360" height="130" as="geometry" />
        </mxCell>
        <mxCell id="vO9Th2QY3rNOP9X5Ir2l-14" style="edgeStyle=orthogonalEdgeStyle;rounded=0;orthogonalLoop=1;jettySize=auto;html=1;" edge="1" parent="WIyWlLk6GJQsqaUBKTNV-1" source="vO9Th2QY3rNOP9X5Ir2l-12" target="vO9Th2QY3rNOP9X5Ir2l-10">
          <mxGeometry relative="1" as="geometry">
            <Array as="points">
              <mxPoint x="480" y="940" />
              <mxPoint x="330" y="940" />
            </Array>
          </mxGeometry>
        </mxCell>
        <mxCell id="vO9Th2QY3rNOP9X5Ir2l-12" value="Secondary Prediction" style="whiteSpace=wrap;html=1;fontSize=26;" vertex="1" parent="WIyWlLk6GJQsqaUBKTNV-1">
          <mxGeometry x="380" y="770" width="200" height="110" as="geometry" />
        </mxCell>
      </root>
    </mxGraphModel>
  </diagram>
</mxfile>
